<svg width="131" height="132" viewBox="0 0 131 132" fill="none" xmlns="http://www.w3.org/2000/svg">
<path d="M6.4 0.399993L0 0.799993V66.4V132H63.3333C98.1333 132 126.533 131.6 126.4 131.067C126.133 130.533 121.867 125.867 116.8 120.667L107.6 111.333H63.8667H20V66V20.6667H64.2667H108.533L117.6 11.0667C122.533 5.73333 126.667 1.06666 126.667 0.66666C126.667 -6.88434e-06 17.2 -0.266674 6.4 0.399993Z" fill="#989898"/>
<path d="M74 72.5333L84.2666 82.6666H94.6666H105.067L115.2 73.0666C120.8 67.7333 125.333 63.2 125.333 62.9333C125.333 62.6666 111.467 62.4 94.4 62.4L63.6 62.2666L74 72.5333Z" fill="#F0B201"/>
<path d="M119.867 78.9333L109.733 89.3333L110 96.9333C110.267 104.533 110.267 104.667 120.267 114.8L130.267 124.933V96.8C130.267 81.3333 130.267 68.6667 130.133 68.6667C130 68.6667 125.333 73.3333 119.867 78.9333Z" fill="#F0B201"/>
</svg>
