<?xml version="1.0" standalone="no"?>
<!DOCTYPE svg PUBLIC "-//W3C//DTD SVG 20010904//EN"
 "http://www.w3.org/TR/2001/REC-SVG-20010904/DTD/svg10.dtd">
<svg version="1.0" xmlns="http://www.w3.org/2000/svg"
 width="419.022349pt" height="483.066401pt" viewBox="0 0 419.022349 483.066401"
 preserveAspectRatio="xMidYMid meet">
<metadata>
Created by potrace 1.16, written by Peter Selinger 2001-2019
</metadata>
<g transform="translate(0.000000,483.060739) scale(0.100000,-0.100000)"
fill="#000000" stroke="none">
<path d="M0 2415 l0 -2415 790 0 790 0 -3 39 c-1 25 -6 36 -12 31 -6 -5 -19 4
-32 23 -33 48 -37 66 -19 73 9 3 16 11 16 16 0 6 -6 5 -15 -2 -12 -10 -15 -9
-15 4 0 30 21 60 79 114 55 51 283 212 301 212 5 0 11 -9 15 -20 9 -28 -41
-71 -227 -196 -53 -36 -103 -73 -110 -82 -13 -15 -7 -12 83 49 16 11 51 35 77
52 26 17 80 58 121 91 l73 59 31 -33 31 -33 -30 -26 c-100 -85 -209 -177 -218
-183 -6 -4 -8 -9 -5 -12 6 -6 50 28 193 147 39 31 74 57 78 57 15 0 8 -48 -7
-54 -8 -3 -15 -10 -15 -16 0 -6 27 10 60 37 140 112 259 206 316 251 34 26 67
56 74 66 7 10 -8 3 -33 -17 -24 -21 -49 -37 -56 -37 -6 0 -14 -7 -17 -15 -4
-8 -10 -12 -15 -9 -5 3 -6 10 -3 16 4 7 2 8 -4 4 -6 -4 -8 -14 -5 -23 11 -28
-17 -4 -29 25 -11 27 -11 27 -21 -15 -5 -24 -14 -43 -19 -43 -6 0 -8 7 -5 15
4 8 2 17 -3 20 -6 4 -7 17 -4 31 7 27 -10 34 -20 7 -6 -14 -9 -14 -26 5 -17
17 -25 19 -52 11 -18 -5 -34 -9 -35 -9 -1 0 0 -7 4 -17 5 -14 1 -15 -24 -10
-21 4 -35 1 -43 -8 -18 -21 -29 -18 -23 5 3 11 8 18 12 16 4 -3 13 0 21 5 13
7 13 10 1 18 -15 10 -8 15 32 25 17 4 27 2 27 -4 0 -6 5 -8 11 -4 8 5 7 9 -1
14 -7 4 -10 15 -7 25 8 19 27 11 27 -11 0 -8 7 -14 15 -14 18 0 19 12 4 27 -6
6 -8 16 -5 22 11 18 26 13 26 -9 0 -11 7 -20 15 -20 8 0 15 5 15 10 0 6 -4 10
-10 10 -19 0 -10 18 11 23 12 3 18 10 15 15 -3 5 3 17 14 27 12 11 18 26 15
35 -4 13 1 18 17 19 13 1 34 2 48 4 21 2 24 -2 22 -20 -2 -13 2 -23 9 -23 7 0
9 9 5 27 -20 81 -20 80 13 75 37 -5 81 5 81 18 0 20 58 101 63 88 4 -9 6 -8 6
3 1 9 8 20 17 23 10 4 14 14 11 26 -3 13 0 20 9 20 8 0 14 5 14 11 0 5 4 8 9
4 5 -3 12 -1 15 4 4 5 2 12 -3 15 -11 7 -2 46 10 46 5 0 9 3 8 8 -3 19 15 52
28 52 11 0 13 7 9 25 -5 19 -3 23 9 19 8 -4 15 -10 15 -15 0 -5 9 -4 20 3 11
7 18 18 16 25 -3 7 -1 15 5 18 5 4 7 11 3 16 -3 6 3 13 14 16 23 6 19 33 -4
33 -8 0 -15 7 -15 15 -3 28 -4 33 -11 40 -3 3 -9 -8 -13 -25 -4 -17 -17 -42
-29 -55 -24 -26 -39 -24 -29 3 5 10 3 13 -6 8 -7 -5 -10 -14 -7 -21 3 -8 1
-15 -4 -17 -9 -3 -18 -34 -27 -95 -6 -36 -17 -42 -31 -16 -8 14 -11 11 -16
-14 -7 -29 -23 -42 -78 -63 -18 -6 -28 -6 -28 0 0 19 -28 10 -33 -10 -3 -11
-14 -20 -25 -20 -12 0 -24 -11 -32 -30 -7 -17 -16 -33 -21 -36 -15 -9 3 60 23
85 10 13 17 38 17 55 -1 17 -3 23 -6 13 -2 -9 -9 -17 -14 -17 -6 0 -8 4 -4 9
3 5 1 12 -5 16 -5 3 -10 -1 -10 -9 0 -16 -113 -136 -128 -136 -4 0 -22 -14
-40 -30 -25 -23 -32 -25 -27 -11 3 10 -1 24 -10 31 -13 11 -22 10 -51 -3 -19
-10 -48 -17 -64 -17 -17 0 -29 -3 -27 -8 1 -4 -5 -15 -13 -23 -13 -15 -16 -14
-33 7 -10 13 -21 23 -25 22 -7 -1 -22 4 -68 22 -16 6 -31 2 -58 -17 l-37 -25
-12 31 c-6 17 -15 31 -20 31 -5 0 -7 -7 -3 -15 4 -11 -1 -15 -17 -15 -28 0
-52 15 -52 32 0 7 -9 12 -18 10 -12 -2 -21 4 -24 17 -3 14 -14 21 -28 21 -16
0 -25 8 -29 25 -4 16 -11 23 -18 19 -7 -5 -9 0 -6 14 3 12 2 22 -3 24 -10 4
-39 108 -39 143 0 14 -5 25 -11 25 -22 0 -105 101 -141 172 -71 140 -102 268
-65 268 8 0 26 -26 42 -57 36 -73 78 -143 87 -143 3 0 4 17 1 38 -4 27 -1 42
10 51 9 7 13 20 10 29 -9 27 22 -18 38 -56 8 -17 19 -32 25 -32 15 0 25 -26
18 -44 -3 -8 5 -21 18 -30 19 -14 21 -18 8 -26 -9 -6 -10 -10 -3 -10 6 0 19
-14 27 -32 20 -39 20 -41 -3 -33 -18 5 -19 2 -14 -32 3 -21 24 -62 46 -94 40
-54 42 -55 89 -55 26 1 48 6 48 11 0 6 4 5 8 -1 9 -15 56 1 47 16 -3 5 1 10 9
10 9 0 16 -4 16 -10 0 -11 33 -13 80 -4 21 5 35 15 41 32 12 31 7 37 -19 23
-17 -9 -23 -6 -41 24 -12 21 -28 35 -40 35 -10 0 -21 7 -25 15 -6 17 -43 20
-48 4 -10 -30 -138 60 -138 98 0 26 27 32 48 11 9 -9 57 -14 153 -15 120 -2
148 1 192 18 29 11 71 24 95 28 37 8 41 7 30 -7 -7 -8 -12 -17 -10 -19 7 -9 0
-23 -11 -23 -8 0 -20 -11 -27 -25 -7 -13 -16 -22 -20 -20 -10 6 -35 -24 -27
-31 10 -11 172 48 187 68 10 12 22 17 33 12 18 -6 21 4 20 69 -1 15 2 27 6 27
4 0 46 37 95 82 49 46 93 83 100 83 6 0 16 -6 23 -15 10 -13 12 -9 13 19 0 37
-18 110 -32 126 -4 5 -8 15 -8 22 0 7 -26 39 -58 72 -31 32 -66 69 -78 82 -23
26 -149 129 -158 129 -7 0 137 -183 208 -265 40 -46 33 -79 -16 -83 -16 -1
-28 3 -28 8 0 6 -8 10 -17 10 -15 0 -16 -2 -3 -10 10 -7 -23 -9 -102 -6 -64 3
-118 1 -120 -4 -2 -5 -38 -10 -80 -12 -43 -2 -78 -6 -78 -10 0 -12 -107 -38
-158 -38 -27 0 -69 7 -92 15 -38 13 -41 13 -36 0 5 -13 2 -14 -15 -4 l-21 11
22 15 c16 12 36 13 90 8 53 -5 81 -3 120 10 27 9 50 21 50 26 0 5 16 15 35 23
19 9 39 25 45 38 6 17 9 19 9 6 1 -10 8 -18 16 -18 9 0 12 6 8 16 -5 13 -2 15
16 9 18 -5 24 -1 36 29 9 20 16 38 16 41 0 2 9 27 19 55 18 49 17 82 -3 108
-15 19 -27 14 -27 -12 0 -38 -18 -76 -35 -76 -10 0 -13 -5 -9 -12 5 -8 2 -9
-9 -5 -10 3 -17 2 -17 -3 0 -8 -117 -7 -146 2 -5 1 -19 -3 -31 -10 -13 -7 -23
-8 -23 -3 0 13 86 45 99 37 16 -10 45 54 31 68 -8 8 -13 8 -18 -1 -4 -7 -19
-14 -32 -16 -16 -3 -24 -11 -24 -21 2 -17 1 -17 -32 -21 -52 -5 -119 -52 -73
-51 21 1 27 -17 7 -22 -9 -2 -8 0 2 8 12 9 9 10 -14 5 -19 -4 -34 -1 -46 10
-14 13 -22 14 -44 4 -25 -12 -29 -10 -63 30 -31 37 -38 40 -45 26 -6 -9 -7
-22 -5 -29 3 -8 -1 -23 -9 -35 -10 -14 -12 -27 -6 -38 5 -10 9 -33 10 -51 2
-19 9 -41 17 -49 8 -8 15 -20 14 -26 0 -9 -2 -8 -6 1 -11 27 -23 10 -23 -32 0
-39 -3 -44 -25 -48 -17 -4 -25 -1 -25 8 0 8 -4 14 -10 14 -17 0 -25 3 -39 17
-12 12 -11 16 8 29 22 16 29 44 11 44 -5 0 -10 7 -10 15 0 8 4 15 8 15 4 0 8
8 8 18 1 9 5 41 9 70 l8 53 -26 -12 c-15 -7 -29 -19 -32 -28 -3 -9 -15 -21
-27 -26 -13 -6 -30 -24 -38 -42 -8 -17 -23 -34 -34 -37 -12 -3 -16 -10 -13
-20 5 -12 -1 -16 -23 -16 -29 0 -30 -2 -25 -32 l6 -32 -21 26 c-21 28 -26 43
-10 33 15 -9 12 14 -4 31 -11 11 -16 11 -19 1 -3 -7 -6 -5 -6 6 -1 9 -10 26
-20 36 -20 20 -20 20 -23 -2 -2 -12 -8 21 -12 74 -6 64 -4 123 4 175 6 44 14
95 17 114 3 19 13 44 22 54 12 14 13 20 4 23 -24 8 -11 123 13 123 8 0 14 7
14 15 0 9 11 33 25 55 14 22 25 43 25 48 0 12 44 52 57 52 6 0 17 7 24 16 11
14 27 16 95 10 128 -10 224 -53 264 -119 l20 -32 0 28 c0 77 -89 181 -173 203
-68 18 -271 9 -300 -13 -7 -6 -20 -13 -30 -16 -15 -6 -16 -2 -10 21 5 24 4 25
-9 14 -14 -11 -16 -4 -12 70 7 157 30 236 88 303 14 17 26 33 26 37 0 11 56
38 80 38 15 0 25 10 33 30 6 17 15 30 19 30 4 0 8 7 8 15 0 20 37 39 43 22 3
-8 14 -3 34 16 34 31 96 38 111 11 5 -9 12 -15 15 -15 23 3 28 -1 22 -18 -6
-20 18 -46 35 -36 6 4 10 -4 10 -19 0 -14 4 -26 9 -26 5 0 16 -3 25 -6 12 -5
16 0 16 16 0 22 1 22 18 7 10 -10 24 -17 30 -17 6 0 15 -12 18 -27 7 -29 51
-83 67 -83 4 0 -1 12 -12 26 -20 26 -30 104 -13 104 4 0 24 16 44 35 29 28 45
35 77 35 37 0 59 12 78 43 17 27 67 57 95 57 17 0 42 -8 56 -19 15 -10 50 -23
77 -29 66 -14 115 -35 143 -62 26 -25 96 -38 106 -21 4 6 18 11 30 11 13 0 29
7 36 15 23 28 52 14 66 -30 10 -33 20 -41 15 -11 -1 5 5 6 14 2 9 -3 21 -6 26
-6 5 0 9 -8 9 -18 0 -32 24 -53 63 -56 43 -4 39 0 59 -46 25 -56 31 -107 14
-113 -9 -4 -16 1 -18 11 -2 12 -6 13 -11 5 -4 -6 -1 -18 7 -25 7 -8 16 -23 20
-33 3 -11 17 -32 31 -47 25 -28 33 -44 15 -33 -13 8 -13 -6 1 -25 8 -12 12
-12 16 -2 4 10 9 8 20 -7 8 -12 19 -19 24 -16 5 4 10 0 11 -7 0 -7 2 -24 4
-38 2 -14 8 -43 15 -65 14 -49 14 -66 -1 -175 -7 -47 -12 -103 -13 -125 -1
-22 -8 -50 -14 -62 -17 -29 -16 -46 2 -39 20 7 19 1 -6 -50 -14 -27 -27 -40
-35 -37 -20 8 -17 -14 4 -26 13 -8 15 -14 6 -28 -15 -25 -28 -19 -32 14 -1 15
-5 39 -8 53 -5 22 -7 23 -16 7 -7 -13 -6 -23 3 -33 10 -12 10 -17 0 -23 -6 -4
-11 -14 -9 -22 2 -9 -8 -15 -30 -17 -32 -3 -33 -5 -29 -39 3 -19 0 -49 -5 -65
-9 -25 -12 -28 -20 -14 -11 19 -28 21 -28 3 0 -18 23 -67 32 -67 4 0 10 9 13
20 6 20 35 24 62 7 6 -4 17 -6 25 -4 7 2 10 2 7 0 -3 -2 -4 -14 -2 -26 3 -13
-2 -29 -10 -35 -8 -7 -13 -22 -10 -32 3 -12 0 -20 -6 -20 -7 0 -9 5 -6 10 3 6
2 10 -3 10 -12 0 -19 -29 -14 -54 3 -14 6 -15 12 -6 5 8 16 9 31 5 21 -7 21
-9 6 -20 -9 -7 -17 -17 -17 -24 0 -6 -6 -11 -14 -11 -14 0 -30 -34 -26 -60 3
-27 16 -30 38 -10 25 24 32 16 37 -45 4 -45 -7 -54 -41 -32 -15 9 -24 -1 -24
-26 0 -14 5 -17 16 -13 9 4 22 2 29 -4 10 -9 8 -16 -11 -35 -13 -13 -24 -30
-24 -36 0 -7 6 -4 14 7 8 10 18 15 22 11 5 -4 4 -11 -2 -15 -19 -12 -33 -48
-24 -62 6 -10 9 -7 13 11 4 21 4 21 6 3 0 -12 -10 -33 -23 -47 -17 -18 -21
-28 -13 -36 8 -8 8 -11 -1 -11 -8 0 -10 -9 -6 -26 5 -18 3 -25 -4 -20 -6 4 -8
-1 -5 -14 3 -11 10 -17 16 -13 6 3 7 1 3 -6 -4 -6 -11 -9 -16 -6 -9 5 -22 -36
-14 -44 3 -3 9 1 14 9 5 8 12 11 17 7 4 -5 1 -12 -6 -16 -7 -5 -13 -24 -13
-43 0 -29 -9 -45 -50 -87 -47 -48 -56 -77 -21 -64 12 5 14 3 8 -7 -5 -9 -4
-11 3 -6 7 4 12 14 12 22 0 8 10 14 23 14 26 0 104 71 127 116 8 16 25 39 37
51 13 12 23 26 23 31 0 19 27 62 34 54 5 -4 7 2 5 13 -5 30 22 116 34 108 6
-4 7 -1 2 7 -10 16 17 33 28 17 5 -7 6 -1 3 15 -3 15 -2 29 2 32 15 9 12 -62
-3 -74 -8 -6 -21 -36 -30 -66 -9 -30 -25 -64 -35 -74 -11 -11 -20 -23 -20 -28
0 -8 -69 -114 -80 -122 -17 -13 -90 -113 -86 -117 5 -5 98 92 136 139 33 44
124 182 141 217 l18 36 1 -41 c0 -25 -6 -46 -15 -54 -8 -7 -15 -21 -15 -31 0
-10 -5 -21 -10 -24 -6 -3 -8 -16 -5 -28 13 -51 11 -82 -7 -95 -10 -7 -18 -21
-18 -31 0 -10 -14 -29 -32 -42 -17 -13 -41 -32 -52 -43 -21 -18 -21 -18 4 -2
14 9 39 23 55 32 17 9 47 32 69 51 21 19 55 41 75 49 20 8 77 35 127 59 108
53 131 56 140 17 3 -15 7 -32 9 -39 2 -7 -21 -23 -51 -37 -69 -32 -215 -118
-210 -124 3 -2 31 12 64 33 65 40 193 95 205 88 9 -5 47 -79 47 -92 0 -5 -13
-12 -29 -16 -33 -7 -176 -89 -187 -107 -5 -7 5 -4 21 6 60 40 113 66 161 81
27 8 50 15 51 15 3 0 35 -101 32 -103 -2 -1 -34 -17 -71 -36 -37 -19 -80 -45
-95 -58 -15 -13 8 -3 52 22 99 56 126 57 155 9 20 -32 21 -36 6 -47 -16 -12
-13 -44 9 -78 7 -11 127 -79 139 -79 1 0 2 10 3 23 1 12 6 83 12 157 5 74 13
196 16 270 16 344 90 1343 101 1362 3 4 39 8 81 8 107 0 87 11 -45 24 -36 3
-56 16 -26 17 45 1 77 9 92 21 15 11 16 11 4 -4 -16 -21 -5 -28 48 -32 44 -3
68 -16 30 -16 -13 0 -20 -3 -17 -6 7 -8 105 -9 113 -2 2 3 6 50 9 104 4 106 0
102 -10 -8 -4 -38 -11 -68 -16 -68 -7 0 -8 27 -4 73 8 90 17 246 20 355 1 45
5 85 8 88 2 3 1 21 -3 40 -5 20 -4 34 1 34 6 0 9 76 9 180 -1 107 -5 178 -11
175 -5 -4 -5 4 1 19 6 16 10 255 10 601 l0 575 -24 -6 c-16 -4 -25 -1 -29 10
-4 9 -18 16 -34 16 -15 0 -35 5 -43 11 -16 12 22 8 93 -10 33 -8 37 -7 37 10
0 18 -9 19 -151 17 -83 -2 -137 -6 -119 -9 49 -10 50 -22 0 -15 -88 13 -85 14
-87 -24 -2 -25 0 -30 6 -16 7 18 8 18 14 3 8 -20 -2 -77 -13 -77 -5 0 -6 10
-4 23 4 20 4 21 -5 2 -5 -11 -9 -38 -9 -60 l0 -40 10 33 c6 17 15 32 19 32 12
0 11 -17 -1 -25 -6 -4 -10 -21 -9 -38 2 -18 2 -56 1 -85 -2 -45 -4 -51 -16
-40 -10 9 -11 17 -4 26 6 7 8 16 4 20 -10 9 -30 -26 -34 -59 -2 -19 3 -29 20
-37 22 -10 21 -11 -10 -11 -18 -1 -43 6 -55 14 -21 14 -22 17 -15 127 10 150
11 213 3 238 -6 20 -10 20 -1516 20 -1355 0 -1509 -2 -1509 -16 0 -9 5 -12 11
-8 15 9 3 -46 -13 -61 -8 -7 -9 -6 -3 3 4 7 4 29 0 48 l-6 35 -122 -3 -122 -3
-22 -45 c-31 -67 -41 -133 -45 -322 -2 -54 -6 -78 -15 -78 -6 0 -15 5 -18 10
-3 6 -1 10 5 10 6 0 10 6 9 13 -1 6 1 41 4 77 4 36 9 106 12 155 5 98 11 128
33 163 l14 22 -216 0 -216 0 0 -2415z m3955 2365 c18 -8 18 -9 -5 -9 -14 0
-34 4 -45 9 -18 8 -18 9 5 9 14 0 34 -4 45 -9z m-228 -22 c-3 -8 -6 -5 -6 6
-1 11 2 17 5 13 3 -3 4 -12 1 -19z m213 -22 c0 -3 -4 -8 -10 -11 -5 -3 -10 -1
-10 4 0 6 5 11 10 11 6 0 10 -2 10 -4z m-3620 -66 c0 -5 -2 -10 -4 -10 -3 0
-8 5 -11 10 -3 6 -1 10 4 10 6 0 11 -4 11 -10z m117 -22 c-3 -7 -5 -2 -5 12 0
14 2 19 5 13 2 -7 2 -19 0 -25z m-10 -90 c-3 -7 -5 -2 -5 12 0 14 2 19 5 13 2
-7 2 -19 0 -25z m133 7 c0 -3 -9 -15 -20 -27 -22 -24 -26 -18 -8 12 12 19 28
27 28 15z m-60 -80 c0 -8 -9 -19 -21 -25 -20 -11 -20 -11 -4 14 20 30 25 32
25 11z m3560 -5 c0 -5 -2 -10 -4 -10 -3 0 -8 5 -11 10 -3 6 -1 10 4 10 6 0 11
-4 11 -10z m-3765 -50 c3 -5 1 -10 -4 -10 -6 0 -11 5 -11 10 0 6 2 10 4 10 3
0 8 -4 11 -10z m3679 -36 c3 -8 2 -12 -4 -9 -6 3 -10 10 -10 16 0 14 7 11 14
-7z m-160 -59 c5 -31 4 -35 -3 -17 -6 12 -15 22 -21 22 -11 0 -14 33 -3 44 11
11 21 -7 27 -49z m136 9 c0 -3 -7 -1 -15 6 -8 7 -15 17 -15 22 0 5 7 3 15 -6
8 -8 15 -18 15 -22z m-3570 7 c0 -6 -4 -12 -8 -15 -5 -3 -9 1 -9 9 0 8 4 15 9
15 4 0 8 -4 8 -9z m-90 -45 c0 -11 -19 -15 -25 -6 -3 5 1 10 9 10 9 0 16 -2
16 -4z m3740 -82 c0 -8 -5 -12 -10 -9 -6 4 -8 11 -5 16 9 14 15 11 15 -7z
m-3643 -61 c-3 -10 -5 -4 -5 12 0 17 2 24 5 18 2 -7 2 -21 0 -30z m3673 22 c0
-8 -2 -15 -4 -15 -2 0 -6 7 -10 15 -3 8 -1 15 4 15 6 0 10 -7 10 -15z m-25 -4
c3 -5 1 -12 -5 -16 -5 -3 -10 1 -10 9 0 18 6 21 15 7z m-145 -21 c0 -11 -4
-20 -9 -20 -5 0 -7 9 -4 20 3 11 7 20 9 20 2 0 4 -9 4 -20z m-1806 -52 c12
-16 18 -19 22 -10 6 14 34 17 34 3 0 -5 -9 -11 -21 -14 -29 -8 -15 -25 15 -20
13 3 27 0 30 -6 4 -6 12 -11 17 -11 6 0 7 5 3 12 -5 8 -2 9 12 3 24 -11 141
-12 171 -2 20 7 19 5 -7 -22 -34 -33 -40 -57 -12 -46 56 24 101 36 139 38 23
1 43 5 43 9 0 8 80 17 225 24 97 5 128 3 158 -10 31 -13 37 -13 37 -1 0 8 -8
18 -17 23 -29 15 -231 23 -318 13 -44 -5 -84 -6 -88 -1 -13 12 63 17 250 16
l172 -1 28 -27 c16 -16 37 -28 46 -28 9 0 17 -4 17 -8 0 -14 -24 -32 -43 -32
-11 0 -36 -14 -57 -30 -22 -17 -61 -37 -89 -46 -58 -17 -214 -34 -221 -24 -10
13 -103 31 -130 25 -16 -3 -31 -1 -35 4 -3 6 -25 11 -47 11 -52 0 -47 -4 38
-34 44 -16 71 -21 75 -14 4 7 9 6 13 -1 4 -6 -5 -22 -20 -36 -21 -19 -30 -22
-45 -14 -13 6 -19 6 -19 -1 0 -5 -15 -10 -32 -10 -28 -1 -31 -2 -17 -13 16
-12 15 -37 -2 -37 -6 0 -7 5 -4 10 3 6 -2 13 -11 17 -10 4 -19 2 -22 -5 -2 -7
-10 -12 -18 -12 -8 0 -14 -4 -14 -10 0 -5 -7 -10 -15 -10 -8 0 -15 -7 -15 -15
0 -12 -9 -13 -45 -8 -53 7 -61 -8 -15 -29 44 -19 37 -31 -15 -26 -33 4 -48 1
-57 -10 -11 -13 -10 -15 4 -9 10 3 20 2 23 -2 6 -10 -34 -23 -47 -15 -4 3 -8
14 -8 25 0 11 -6 19 -12 18 -39 -5 -49 1 -38 22 6 11 21 24 33 29 l22 9 -22 0
c-12 1 -26 -5 -30 -12 -4 -7 -24 -13 -43 -13 -19 1 -35 -3 -35 -9 0 -5 -10
-20 -22 -32 -13 -13 -23 -21 -23 -18 0 3 -13 -8 -30 -25 -16 -16 -32 -30 -34
-30 -3 0 -21 14 -41 31 -34 30 -49 79 -23 79 6 0 3 9 -8 21 -16 17 -16 22 -4
30 13 8 13 11 -2 23 -20 15 -24 41 -8 51 6 3 10 -1 10 -9 0 -14 18 -32 25 -25
2 2 -3 20 -11 39 -12 27 -17 31 -24 20 -5 -8 -23 -16 -41 -18 l-33 -4 22 19
c17 15 19 21 9 33 -7 8 -18 15 -24 16 -7 1 -20 2 -29 3 -10 0 -14 7 -10 16 3
8 1 15 -3 15 -5 0 -11 -5 -13 -11 -2 -7 -26 -13 -53 -15 -28 -1 -62 -7 -77
-13 -17 -6 -28 -7 -28 -1 0 27 115 68 214 75 28 2 55 4 60 4 4 1 5 8 2 16 -3
8 -9 22 -13 32 -5 13 -2 15 18 9 32 -10 109 -7 128 4 9 5 12 10 8 10 -5 0 -5
5 -2 11 5 7 14 4 26 -7 12 -11 19 -13 19 -5 0 7 4 10 9 7 17 -11 43 6 38 25
-7 26 7 24 27 -3z m-1700 -12 c-3 -7 -17 -19 -31 -25 l-26 -12 24 25 c26 28
41 34 33 12z m2081 -15 c-6 -4 -23 -11 -40 -14 l-30 -6 30 14 c35 16 54 19 40
6z m-112 -8 c-7 -2 -19 -2 -25 0 -7 3 -2 5 12 5 14 0 19 -2 13 -5z m-96 -9
c-3 -3 -12 -4 -19 -1 -8 3 -5 6 6 6 11 1 17 -2 13 -5z m-1877 -30 c0 -14 -4
-23 -9 -20 -5 3 -7 15 -4 26 7 28 13 25 13 -6z m1423 6 c7 0 4 -5 -6 -11 -18
-11 -37 -5 -37 13 0 5 7 7 16 4 9 -3 21 -6 27 -6z m-96 -6 c-3 -3 -12 -4 -19
-1 -8 3 -5 6 6 6 11 1 17 -2 13 -5z m2313 -9 c0 -8 -4 -15 -10 -15 -5 0 -7 7
-4 15 4 8 8 15 10 15 2 0 4 -7 4 -15z m-2564 -56 c30 -40 51 -58 61 -55 9 4
13 1 11 -6 -2 -6 -30 -20 -61 -31 -32 -10 -73 -34 -96 -55 -37 -35 -91 -122
-91 -149 0 -21 -52 -54 -74 -48 -12 4 -16 3 -10 -2 6 -4 15 -19 19 -32 6 -20
5 -23 -10 -17 -11 4 -25 0 -36 -10 -16 -14 -23 -15 -49 -4 -49 20 -47 32 4 26
41 -5 46 -3 46 14 0 12 -5 17 -14 14 -10 -4 -16 6 -21 33 -5 29 -16 44 -47 66
-47 33 -45 47 3 18 45 -27 53 -26 44 6 -6 24 -5 25 10 13 9 -8 14 -22 12 -32
-9 -32 42 -23 75 14 35 39 33 61 -7 68 -30 6 -30 6 -5 13 15 4 30 1 40 -7 18
-16 50 -17 47 -2 -1 5 4 11 11 12 6 1 16 2 21 3 5 0 7 10 4 20 -4 16 -1 19 15
14 25 -6 65 31 58 55 -7 21 8 47 22 39 5 -4 7 -18 4 -32 -5 -27 -3 -28 22 -19
17 7 22 34 7 34 -10 0 -71 79 -71 92 0 16 10 7 56 -53z m-1106 16 c0 -8 -4
-15 -10 -15 -5 0 -10 7 -10 15 0 8 5 15 10 15 6 0 10 -7 10 -15z m15 -77 c-12
-156 -24 -217 -18 -94 4 72 3 107 -4 103 -6 -4 -3 14 6 38 9 25 18 45 20 45 2
0 0 -42 -4 -92z m1145 77 c-7 -8 -17 -15 -22 -15 -11 0 14 29 26 30 5 0 3 -7
-4 -15z m159 -85 c9 0 25 -6 36 -13 21 -16 11 -26 -29 -29 -27 -2 -37 -28 -11
-28 9 0 18 -7 22 -16 3 -8 12 -13 20 -9 12 4 14 0 9 -20 -11 -43 3 -75 33 -76
l26 -1 -27 -11 c-20 -8 -28 -18 -28 -36 0 -21 -5 -26 -23 -26 -19 0 -23 4 -19
19 4 13 1 17 -7 12 -7 -5 -13 3 -17 23 -4 17 -11 28 -17 24 -5 -3 -15 1 -21 9
-17 24 -56 33 -56 13 0 -8 6 -18 13 -21 8 -3 14 -11 14 -19 0 -13 -3 -13 -16
-1 -23 19 -55 25 -77 14 -16 -8 -17 -7 -4 4 18 15 23 68 6 68 -6 0 -3 5 7 11
9 6 27 7 40 3 33 -11 57 -12 57 -2 0 5 -7 11 -15 14 -11 5 -12 10 -4 26 9 16
8 19 -3 12 -21 -13 -61 -17 -53 -4 3 6 -3 10 -17 10 -22 1 -22 1 5 16 15 8 27
19 27 24 0 5 21 16 48 23 40 12 48 12 55 1 4 -8 16 -14 26 -14z m-331 8 c7 -7
12 -19 12 -27 0 -11 -5 -9 -20 7 -11 12 -20 24 -20 27 0 9 16 5 28 -7z m439 6
c-3 -3 -12 -4 -19 -1 -8 3 -5 6 6 6 11 1 17 -2 13 -5z m2224 -71 c-10 -17 -10
-17 -11 2 0 11 4 31 8 45 l7 25 3 -27 c2 -15 -1 -35 -7 -45z m36 35 c-3 -8 -6
-5 -6 6 -1 11 2 17 5 13 3 -3 4 -12 1 -19z m-2287 -8 c0 -5 -4 -10 -10 -10 -5
0 -10 5 -10 10 0 6 5 10 10 10 6 0 10 -4 10 -10z m-240 -50 c0 -5 -2 -10 -4
-10 -3 0 -8 5 -11 10 -3 6 -1 10 4 10 6 0 11 -4 11 -10z m974 -19 c4 -5 -3 -7
-14 -4 -23 6 -26 13 -6 13 8 0 17 -4 20 -9z m-1314 -21 c-18 -12 -40 -13 -40
-2 0 4 12 9 28 10 21 1 23 0 12 -8z m224 -5 c8 -8 19 -15 24 -15 5 0 17 -9 26
-19 17 -19 17 -19 -3 -14 -13 3 -21 1 -21 -6 0 -7 -10 -11 -22 -9 -18 2 -22
-1 -20 -18 4 -27 -18 -36 -43 -18 -10 8 -15 14 -9 14 13 0 37 57 29 70 -7 11
2 30 15 30 5 0 15 -7 24 -15z m-318 -76 c27 -19 44 -39 52 -65 6 -21 9 -40 7
-42 -10 -10 -35 22 -35 44 0 17 -15 33 -55 61 -30 21 -54 42 -55 46 0 9 31 -7
86 -44z m1320 -10 c30 -18 34 -19 34 -4 0 9 5 13 10 10 26 -16 3 -41 -46 -49
-39 -7 -43 -6 -57 23 -23 47 2 56 59 20z m-895 -9 c29 0 29 -35 -1 -52 l-27
-15 -1 34 c-1 19 -4 39 -8 46 -5 9 -3 8 7 0 7 -7 21 -13 30 -13z m-171 -45 c0
-8 -7 -15 -15 -15 -16 0 -20 12 -8 23 11 12 23 8 23 -8z m558 -40 c4 -16 2
-16 -22 0 -14 10 -26 24 -26 32 0 14 3 14 23 1 12 -9 24 -23 25 -33z m-834
-159 c-10 -8 -21 -12 -24 -10 -5 6 21 24 34 24 6 0 1 -6 -10 -14z m-14 -42
c22 -9 40 -23 40 -30 0 -11 -12 -8 -50 11 -72 37 -66 49 10 19z m30 -59 c23
-13 23 -14 4 -15 -11 0 -29 7 -40 15 -26 19 1 20 36 0z m-783 -207 c-3 -7 -5
-2 -5 12 0 14 2 19 5 13 2 -7 2 -19 0 -25z m3 -48 c0 -11 -4 -20 -9 -20 -5 0
-7 9 -4 20 3 11 7 20 9 20 2 0 4 -9 4 -20z m3840 1 c0 -6 -4 -13 -10 -16 -5
-3 -10 1 -10 9 0 9 5 16 10 16 6 0 10 -4 10 -9z m-3890 -90 c0 -12 -28 -22
-34 -12 -3 5 -3 11 1 15 9 9 33 7 33 -3z m3203 -80 c3 -11 2 -23 -1 -26 -4 -4
-5 -35 -3 -71 2 -42 -1 -64 -8 -64 -10 0 -13 24 -13 105 0 60 2 75 11 75 5 0
11 -9 14 -19z m-2288 -141 c3 -5 1 -10 -4 -10 -6 0 -11 5 -11 10 0 6 2 10 4
10 3 0 8 -4 11 -10z m35 -8 c0 -5 -9 -17 -20 -27 -22 -20 -28 -4 -7 20 14 16
27 19 27 7z m2240 -53 c0 -5 -4 -9 -10 -9 -5 0 -3 -18 5 -41 8 -23 12 -46 9
-51 -11 -17 -26 20 -29 72 -2 39 0 48 11 43 8 -3 14 -9 14 -14z m695 -79 c3
-5 1 -10 -4 -10 -6 0 -11 5 -11 10 0 6 2 10 4 10 3 0 8 -4 11 -10z m-725 -90
c-12 -8 -12 -10 -1 -10 8 0 12 -3 8 -6 -3 -3 5 -24 19 -45 25 -40 31 -69 14
-69 -5 0 -10 6 -10 14 0 23 -38 63 -64 68 -29 6 -64 -14 -117 -63 -56 -54 -88
-79 -99 -79 -6 0 -10 -6 -10 -12 0 -10 -3 -9 -9 1 -13 21 -2 47 36 83 19 18
51 50 72 70 45 45 72 57 131 57 33 1 41 -2 30 -9z m-85 -108 c25 -18 35 -59
41 -176 7 -124 7 -126 -19 -165 -16 -23 -23 -43 -17 -46 6 -3 10 -1 10 4 0 6
9 20 20 31 11 11 20 16 20 10 0 -16 -23 -60 -31 -60 -4 0 -14 -11 -21 -24 -7
-13 -21 -39 -32 -57 -25 -46 -56 -79 -74 -79 -8 0 -20 -7 -26 -15 -6 -8 -25
-18 -42 -21 -44 -9 -74 22 -74 76 0 22 4 40 9 40 9 0 6 124 -4 139 -3 5 -1 12
4 15 5 3 8 21 6 38 -4 42 13 98 29 98 36 0 50 -85 21 -128 -9 -12 -23 -38 -31
-58 l-15 -36 28 7 c41 10 66 35 52 52 -9 10 -5 23 15 53 21 33 25 48 20 75 -4
23 -2 35 5 35 6 0 11 -9 11 -21 0 -11 5 -17 10 -14 6 3 10 -3 10 -14 0 -30 11
-51 26 -51 21 0 17 -19 -8 -41 -22 -18 -22 -18 -2 -19 11 0 25 5 32 12 14 14
16 72 3 63 -5 -3 -13 0 -17 6 -3 6 0 15 7 20 18 11 -3 73 -39 111 l-25 27 39
60 c41 63 43 65 59 53z m134 -131 c-7 -25 -21 -64 -32 -86 -11 -22 -24 -51
-28 -65 -6 -17 -7 -8 -4 28 3 28 14 67 25 85 10 17 21 50 25 72 10 60 18 75
23 41 2 -16 -2 -50 -9 -75z m-246 42 c-12 -35 -44 -103 -48 -103 -11 0 0 62
12 67 7 3 13 11 13 17 0 10 19 36 27 36 1 0 0 -8 -4 -17z m207 -18 c0 -8 -4
-15 -10 -15 -5 0 -10 7 -10 15 0 8 5 15 10 15 6 0 10 -7 10 -15z m-540 -129
c0 -3 -4 -8 -10 -11 -5 -3 -10 -1 -10 4 0 6 5 11 10 11 6 0 10 -2 10 -4z m40
-46 c0 -27 -4 -39 -12 -37 -27 5 -37 37 -13 37 8 0 15 9 15 20 0 11 2 20 5 20
3 0 5 -18 5 -40z m-15 -279 c-3 -6 -11 -11 -16 -11 -5 0 -4 6 3 14 14 16 24
13 13 -3z m-1336 -57 c2 -2 -8 -4 -22 -4 -18 0 -27 5 -27 15 0 13 4 14 23 4
12 -6 24 -13 26 -15z m-342 -6 c-3 -8 -6 -5 -6 6 -1 11 2 17 5 13 3 -3 4 -12
1 -19z m823 -37 c0 -5 14 -8 32 -7 l31 1 -2 -70 c-1 -38 -5 -73 -9 -77 -4 -4
-45 -8 -92 -10 -50 -2 -90 -8 -98 -15 -7 -7 -25 -13 -40 -13 -15 0 -34 -5 -42
-10 -12 -8 -12 -10 -1 -10 8 0 11 -3 7 -7 -4 -5 -13 0 -21 10 -10 13 -18 15
-36 9 -26 -10 -65 -10 -75 0 -3 4 -20 4 -37 1 -53 -8 -84 10 -97 58 -14 51 0
72 24 38 16 -23 16 -23 16 -2 0 29 25 36 46 12 17 -19 17 -19 28 3 9 19 21 23
60 24 26 1 72 10 102 19 l54 17 20 -24 c19 -23 19 -23 20 -1 0 15 8 23 29 28
16 3 35 13 42 21 13 16 39 19 39 5z m128 -88 c-3 -40 -6 -48 -23 -48 -16 0
-20 6 -18 33 1 33 18 62 35 62 5 0 8 -21 6 -47z m52 -9 c-7 -7 -16 -14 -21
-14 -16 0 -10 38 9 56 16 17 17 17 20 -5 2 -12 -2 -29 -8 -37z m-238 -99 c0
-5 -5 -11 -11 -13 -6 -2 -11 4 -11 13 0 9 5 15 11 13 6 -2 11 -8 11 -13z m-62
-21 c0 -15 -35 -20 -44 -5 -7 11 -1 16 24 18 11 1 20 -4 20 -13z m290 -14 c0
-5 -4 -10 -10 -10 -5 0 -10 5 -10 10 0 6 5 10 10 10 6 0 10 -4 10 -10z m-645
-144 c34 -27 29 -44 -7 -25 -23 12 -38 28 -38 42 0 13 14 7 45 -17z m121 -40
c15 4 24 2 24 -5 0 -15 27 -14 33 2 2 6 7 9 11 6 3 -3 3 -14 0 -24 -6 -14 -15
-16 -46 -12 -44 6 -71 24 -61 40 5 8 8 7 11 -1 2 -7 13 -10 28 -6z m1519 -46
c-3 -5 -16 -15 -28 -21 -21 -10 -21 -9 2 10 25 23 36 27 26 11z m-838 -326
c-3 -3 -12 -4 -19 -1 -8 3 -5 6 6 6 11 1 17 -2 13 -5z m-47 -53 c0 -11 -31
-24 -39 -16 -3 3 1 10 9 15 19 12 30 12 30 1z m-125 -351 c3 -6 -1 -7 -9 -4
-18 7 -21 14 -7 14 6 0 13 -4 16 -10z m68 -4 c4 -10 1 -13 -8 -9 -8 3 -12 9
-9 14 7 12 11 11 17 -5z"/>
<path d="M2048 4053 c7 -3 16 -2 19 1 4 3 -2 6 -13 5 -11 0 -14 -3 -6 -6z"/>
<path d="M1890 4040 c0 -5 -7 -10 -15 -10 -8 0 -15 -5 -15 -11 0 -7 11 -8 30
-4 19 4 30 3 30 -4 0 -6 7 -11 15 -11 8 0 14 5 13 12 -2 8 8 11 31 9 30 -2 32
-1 20 11 -16 17 -109 23 -109 8z"/>
<path d="M1826 3970 c-6 -35 0 -54 15 -45 11 8 12 45 0 63 -6 10 -10 4 -15
-18z"/>
<path d="M1991 3964 c-18 -21 -6 -30 14 -11 8 9 15 18 15 21 0 11 -15 5 -29
-10z"/>
<path d="M2100 3971 c0 -5 5 -13 10 -16 6 -3 10 -2 10 4 0 5 -4 13 -10 16 -5
3 -10 2 -10 -4z"/>
<path d="M2296 3971 c-4 -7 -5 -15 -2 -18 9 -9 19 4 14 18 -4 11 -6 11 -12 0z"/>
<path d="M1908 3942 c-10 -2 -18 -10 -18 -17 0 -7 -5 -15 -12 -17 -6 -2 -8
-10 -4 -16 4 -7 16 -10 27 -7 15 5 19 2 17 -16 -2 -15 3 -24 15 -27 10 -2 17
3 17 12 0 9 7 16 15 16 8 0 15 -4 15 -9 0 -14 53 -21 68 -9 7 6 15 8 18 5 4
-3 17 5 31 19 13 13 27 24 31 24 4 0 8 9 8 20 0 24 2 23 -33 8 -15 -6 -31 -11
-35 -10 -13 3 -9 -16 5 -21 9 -4 9 -7 0 -18 -10 -10 -16 -9 -33 6 -11 10 -18
25 -16 32 4 11 1 11 -14 3 -11 -6 -25 -8 -30 -5 -6 4 -9 1 -8 -6 2 -7 -5 -14
-14 -17 -12 -2 -20 6 -25 25 -6 20 -13 27 -25 25z"/>
<path d="M2190 3943 c-45 -14 -46 -14 -26 -25 14 -8 22 -6 34 6 18 17 14 25
-8 19z"/>
<path d="M2350 3930 c0 -5 5 -10 11 -10 5 0 7 5 4 10 -3 6 -8 10 -11 10 -2 0
-4 -4 -4 -10z"/>
<path d="M2216 3857 c-66 -20 -52 -32 38 -32 55 0 79 3 68 9 -8 5 -28 9 -43 8
-20 0 -26 3 -22 14 3 8 4 14 2 13 -2 0 -22 -6 -43 -12z"/>
<path d="M1865 3810 c3 -5 16 -10 28 -10 18 0 19 2 7 10 -20 13 -43 13 -35 0z"/>
<path d="M1948 3788 c9 -9 15 -9 24 0 9 9 7 12 -12 12 -19 0 -21 -3 -12 -12z"/>
<path d="M1878 3753 c7 -3 16 -2 19 1 4 3 -2 6 -13 5 -11 0 -14 -3 -6 -6z"/>
<path d="M1856 3711 c-3 -5 1 -11 9 -15 9 -3 15 0 15 9 0 16 -16 20 -24 6z"/>
<path d="M1920 3690 c0 -6 7 -10 15 -10 8 0 15 2 15 4 0 2 -7 6 -15 10 -8 3
-15 1 -15 -4z"/>
<path d="M1206 3651 c-3 -5 1 -11 9 -14 9 -4 12 -1 8 9 -6 16 -10 17 -17 5z"/>
<path d="M1627 3889 c7 -7 15 -10 18 -7 3 3 -2 9 -12 12 -14 6 -15 5 -6 -5z"/>
<path d="M1600 3834 c0 -17 22 -14 28 4 2 7 -3 12 -12 12 -9 0 -16 -7 -16 -16z"/>
<path d="M2346 3685 c25 -19 40 -19 24 0 -7 8 -20 15 -28 15 -13 0 -12 -3 4
-15z"/>
<path d="M1922 1670 c0 -14 2 -19 5 -12 2 6 2 18 0 25 -3 6 -5 1 -5 -13z"/>
<path d="M3766 4812 c-3 -5 -7 -62 -10 -128 -3 -65 -9 -142 -12 -170 -4 -33
-2 -54 5 -58 6 -4 11 -4 12 1 0 4 2 17 5 28 2 11 6 58 9 105 3 47 7 115 10
152 4 60 -5 93 -19 70z"/>
<path d="M3817 4593 c-4 -3 -7 -11 -7 -17 0 -6 5 -5 12 2 6 6 9 14 7 17 -3 3
-9 2 -12 -2z"/>
<path d="M2125 2860 c-66 -3 -126 -9 -132 -13 -7 -5 -13 -19 -13 -33 0 -18 -5
-24 -22 -24 -17 0 -19 -3 -10 -12 16 -16 205 -17 270 -1 45 11 63 11 129 -4
42 -9 71 -19 65 -21 -20 -6 -3 -22 23 -22 13 0 35 -11 48 -24 13 -13 33 -29
45 -35 27 -14 65 -15 57 0 -5 7 5 8 32 3 l38 -7 -22 25 c-13 13 -23 30 -23 36
0 7 -12 17 -26 22 -32 13 -37 12 -29 0 8 -14 -7 -13 -43 3 -23 10 -29 16 -22
27 7 12 12 12 22 2 20 -20 32 -13 13 8 -10 11 -27 20 -38 20 -11 0 -26 8 -33
18 -7 9 -23 18 -36 19 -13 1 -57 6 -98 10 -41 4 -129 6 -195 3z"/>
<path d="M1950 2814 c0 -8 5 -12 10 -9 6 3 10 10 10 16 0 5 -4 9 -10 9 -5 0
-10 -7 -10 -16z"/>
<path d="M2145 2701 c-48 -8 -115 -53 -138 -93 -18 -31 -16 -33 16 -17 21 12
21 11 5 -8 -25 -28 -23 -47 5 -39 12 3 34 6 49 6 15 0 35 8 45 19 10 10 31 21
46 25 25 6 29 3 38 -24 9 -25 16 -30 45 -30 19 0 34 -4 34 -10 0 -5 7 -10 16
-10 9 0 12 5 8 13 -6 9 -4 9 8 -1 11 -9 31 -11 60 -7 24 4 72 8 107 10 34 2
65 6 67 8 3 3 -14 12 -37 21 -48 19 -46 34 2 17 18 -6 35 -9 37 -6 6 6 7 6
-43 35 -90 52 -142 78 -169 84 -26 6 -28 5 -17 -8 8 -9 18 -16 23 -16 6 0 24
-12 42 -27 l31 -26 -40 8 c-22 4 -76 9 -121 11 -74 2 -100 -1 -176 -21 -19 -5
-28 -3 -28 4 0 16 90 71 116 71 13 0 26 5 29 10 7 11 1 11 -60 1z"/>
<path d="M1931 2639 c-6 -17 -20 -38 -31 -47 -14 -12 -18 -24 -14 -40 l7 -23
13 23 c19 35 41 81 48 101 10 31 -12 18 -23 -14z"/>
<path d="M1504 2634 c32 -18 21 -34 -18 -27 -20 4 -51 0 -178 -27 -21 -4 -38
-5 -38 -1 1 14 17 31 45 45 28 15 28 16 7 16 -48 0 -121 -58 -116 -93 1 -9 -2
-19 -7 -23 -15 -9 -10 -27 6 -20 8 3 15 2 15 -3 0 -13 -36 -41 -53 -41 -9 0
-17 -5 -17 -11 0 -5 5 -7 10 -4 6 3 10 1 10 -5 0 -7 15 -3 38 10 30 18 51 22
107 21 39 -1 81 -2 95 -2 14 -1 39 4 55 9 29 10 28 10 -18 11 -56 1 -103 28
-82 48 10 9 15 6 23 -13 10 -20 17 -23 44 -19 18 3 74 8 125 12 80 5 92 8 97
26 2 11 -3 30 -12 43 -20 28 -100 64 -139 64 l-28 -1 29 -15z"/>
<path d="M2180 2526 c0 -2 13 -6 29 -8 17 -2 28 -1 25 4 -5 8 -54 12 -54 4z"/>
<path d="M2085 2470 c13 -20 111 -40 202 -40 51 0 93 4 93 9 0 14 -32 19 -86
14 -27 -3 -83 2 -124 11 -88 19 -93 19 -85 6z"/>
<path d="M2408 2473 c7 -3 16 -2 19 1 4 3 -2 6 -13 5 -11 0 -14 -3 -6 -6z"/>
<path d="M1475 2419 c-41 -17 -66 -19 -140 -16 -49 2 -82 2 -72 0 9 -3 17 -11
17 -19 0 -34 213 -5 253 35 28 27 9 27 -58 0z"/>
<path d="M1960 2270 c0 -5 4 -10 9 -10 6 0 13 5 16 10 3 6 -1 10 -9 10 -9 0
-16 -4 -16 -10z"/>
<path d="M2825 2069 c-10 -15 3 -25 16 -12 7 7 7 13 1 17 -6 3 -14 1 -17 -5z"/>
<path d="M2640 2000 c0 -5 5 -10 10 -10 6 0 10 5 10 10 0 6 -4 10 -10 10 -5 0
-10 -4 -10 -10z"/>
<path d="M2753 1989 c12 -7 15 -17 11 -33 -8 -35 12 -41 24 -7 12 33 0 51 -32
51 -19 -1 -20 -1 -3 -11z"/>
<path d="M4122 1940 c0 -14 2 -19 5 -12 2 6 2 18 0 25 -3 6 -5 1 -5 -13z"/>
<path d="M2680 1840 c0 -5 5 -10 10 -10 6 0 10 5 10 10 0 6 -4 10 -10 10 -5 0
-10 -4 -10 -10z"/>
<path d="M2776 1841 c-4 -7 -5 -15 -2 -18 9 -9 19 4 14 18 -4 11 -6 11 -12 0z"/>
<path d="M4103 1770 c0 -36 2 -50 4 -32 2 17 2 47 0 65 -2 17 -4 3 -4 -33z"/>
<path d="M2590 1790 c0 -5 5 -10 10 -10 6 0 10 5 10 10 0 6 -4 10 -10 10 -5 0
-10 -4 -10 -10z"/>
<path d="M2580 1684 c0 -8 5 -12 10 -9 6 3 10 10 10 16 0 5 -4 9 -10 9 -5 0
-10 -7 -10 -16z"/>
<path d="M4080 1603 c0 -43 -4 -94 -10 -113 -5 -19 -12 -78 -15 -130 -3 -52
-8 -108 -10 -125 -3 -16 -11 -106 -20 -200 -8 -93 -19 -206 -23 -250 -13 -114
-10 -189 8 -210 14 -16 15 -16 27 11 10 24 18 19 14 -8 0 -4 6 -5 14 -2 10 4
13 0 10 -15 -2 -13 1 -18 9 -15 9 3 18 -7 25 -27 15 -43 14 -45 -11 -24 -13
10 1 -5 30 -33 29 -29 55 -52 57 -52 2 0 4 151 5 335 0 296 -1 335 -15 335 -8
0 -21 -11 -27 -25 -8 -19 -14 -22 -24 -14 -19 16 -37 0 -30 -27 4 -13 2 -24
-3 -24 -5 0 -12 -10 -14 -22 -3 -13 -3 2 0 32 2 30 6 125 8 210 2 85 8 211 13
280 12 149 11 182 -5 188 -10 3 -13 -16 -13 -75z m56 -610 c-10 -10 -19 5 -10
18 6 11 8 11 12 0 2 -7 1 -15 -2 -18z m14 -513 c-11 -7 -11 -10 -2 -10 7 0 10
-4 7 -10 -4 -6 -11 -5 -19 3 -17 15 -11 27 12 27 15 0 15 -2 2 -10z"/>
<path d="M2821 1604 c0 -11 3 -14 6 -6 3 7 2 16 -1 19 -3 4 -6 -2 -5 -13z"/>
<path d="M2831 1554 c0 -11 3 -14 6 -6 3 7 2 16 -1 19 -3 4 -6 -2 -5 -13z"/>
<path d="M2785 1520 c-3 -5 3 -10 15 -10 12 0 18 5 15 10 -3 6 -10 10 -15 10
-5 0 -12 -4 -15 -10z"/>
<path d="M2789 1473 c-13 -16 -12 -17 4 -4 9 7 17 15 17 17 0 8 -8 3 -21 -13z"/>
<path d="M1415 1430 c3 -5 8 -10 11 -10 2 0 4 5 4 10 0 6 -5 10 -11 10 -5 0
-7 -4 -4 -10z"/>
<path d="M1840 1411 c0 -22 36 -39 69 -33 27 6 31 10 20 18 -17 14 -89 26 -89
15z"/>
<path d="M2480 1380 c0 -11 2 -20 4 -20 2 0 6 9 9 20 3 11 1 20 -4 20 -5 0 -9
-9 -9 -20z"/>
<path d="M3070 1335 c0 -8 4 -15 10 -15 5 0 7 7 4 15 -4 8 -8 15 -10 15 -2 0
-4 -7 -4 -15z"/>
<path d="M1450 1329 c0 -5 5 -7 10 -4 6 3 10 8 10 11 0 2 -4 4 -10 4 -5 0 -10
-5 -10 -11z"/>
<path d="M1918 1333 c-36 -6 -37 -33 -2 -33 26 0 58 23 47 34 -4 3 -9 5 -12 5
-3 -1 -18 -4 -33 -6z"/>
<path d="M1990 1300 c0 -5 7 -10 16 -10 8 0 12 5 9 10 -3 6 -10 10 -16 10 -5
0 -9 -4 -9 -10z"/>
<path d="M2390 1242 c0 -5 -11 -14 -25 -20 -16 -7 -23 -17 -19 -27 8 -21 21
-19 27 5 3 11 12 20 21 20 18 0 21 15 6 25 -5 3 -10 2 -10 -3z"/>
<path d="M2590 1170 c0 -5 5 -10 10 -10 6 0 10 5 10 10 0 6 -4 10 -10 10 -5 0
-10 -4 -10 -10z"/>
<path d="M2685 1120 c-18 -20 -11 -25 19 -14 17 6 23 34 8 34 -5 0 -17 -9 -27
-20z"/>
<path d="M3144 1108 l-19 -23 23 19 c21 18 27 26 19 26 -2 0 -12 -10 -23 -22z"/>
<path d="M2215 1110 c-3 -5 -1 -10 4 -10 6 0 11 5 11 10 0 6 -2 10 -4 10 -3 0
-8 -4 -11 -10z"/>
<path d="M3054 1028 l-19 -23 23 19 c21 18 27 26 19 26 -2 0 -12 -10 -23 -22z"/>
<path d="M3229 1003 c-13 -16 -12 -17 4 -4 16 13 21 21 13 21 -2 0 -10 -8 -17
-17z"/>
<path d="M3314 898 l-19 -23 23 19 c21 18 27 26 19 26 -2 0 -12 -10 -23 -22z"/>
<path d="M2355 860 c-4 -6 8 -10 29 -10 20 0 36 5 36 10 0 6 -13 10 -29 10
-17 0 -33 -4 -36 -10z"/>
<path d="M3518 839 c-21 -11 -38 -22 -38 -24 0 -3 18 4 40 15 22 11 40 23 40
25 0 7 0 7 -42 -16z"/>
<path d="M2388 553 c-152 -153 -288 -291 -303 -308 -87 -97 -136 -153 -155
-180 -24 -34 -4 -12 115 122 38 43 196 205 350 361 155 155 279 282 276 282
-4 0 -131 -125 -283 -277z"/>
<path d="M2270 790 c0 -5 5 -10 10 -10 6 0 10 5 10 10 0 6 -4 10 -10 10 -5 0
-10 -4 -10 -10z"/>
<path d="M2799 763 c-13 -16 -12 -17 4 -4 9 7 17 15 17 17 0 8 -8 3 -21 -13z"/>
<path d="M3300 729 l-25 -20 33 16 c17 8 32 18 32 20 0 10 -16 4 -40 -16z"/>
<path d="M2475 712 c-5 -4 -17 -16 -25 -27 -11 -15 -7 -14 13 4 24 22 32 31
25 31 -2 0 -7 -4 -13 -8z"/>
<path d="M2699 663 c-13 -16 -12 -17 4 -4 16 13 21 21 13 21 -2 0 -10 -8 -17
-17z"/>
<path d="M3024 638 l-19 -23 23 19 c21 18 27 26 19 26 -2 0 -12 -10 -23 -22z"/>
<path d="M2619 588 c-12 -23 -12 -23 10 -4 23 21 26 26 11 26 -5 0 -15 -10
-21 -22z"/>
<path d="M2799 573 c-13 -16 -12 -17 4 -4 9 7 17 15 17 17 0 8 -8 3 -21 -13z"/>
<path d="M2939 553 c-13 -16 -12 -17 4 -4 16 13 21 21 13 21 -2 0 -10 -8 -17
-17z"/>
<path d="M2525 500 c-10 -11 -13 -20 -7 -20 6 0 16 9 22 20 6 11 9 20 7 20 -2
0 -12 -9 -22 -20z"/>
<path d="M2435 409 c-22 -22 -32 -37 -23 -34 15 6 75 75 66 75 -2 0 -22 -18
-43 -41z"/>
<path d="M2619 393 l-24 -28 28 24 c15 14 27 26 27 28 0 8 -8 1 -31 -24z"/>
<path d="M2699 303 c-52 -54 -101 -107 -109 -118 l-14 -20 20 20 c76 76 207
215 203 215 -2 0 -47 -44 -100 -97z"/>
<path d="M2335 310 c-16 -16 -24 -30 -18 -30 7 0 21 14 33 30 12 17 20 30 18
30 -3 0 -17 -13 -33 -30z"/>
<path d="M2256 225 c-92 -93 -208 -225 -198 -225 5 0 31 26 58 57 27 32 82 93
123 136 41 42 72 77 68 77 -3 0 -26 -20 -51 -45z"/>
<path d="M2360 135 c-68 -68 -122 -127 -119 -130 3 -3 27 19 54 48 27 28 82
87 123 130 42 42 73 77 71 77 -2 0 -60 -56 -129 -125z"/>
<path d="M1835 160 c-10 -11 -14 -20 -9 -20 5 0 15 9 22 20 7 11 11 20 9 20
-2 0 -12 -9 -22 -20z"/>
<path d="M1641 129 c-74 -59 -68 -66 9 -10 46 34 63 51 52 51 -5 0 -32 -18
-61 -41z"/>
<path d="M2519 113 l-24 -28 28 24 c15 14 27 26 27 28 0 8 -8 1 -31 -24z"/>
<path d="M4166 113 c-6 -14 -5 -15 5 -6 7 7 10 15 7 18 -3 3 -9 -2 -12 -12z"/>
<path d="M2429 13 c-13 -16 -12 -17 4 -4 16 13 21 21 13 21 -2 0 -10 -8 -17
-17z"/>
</g>
</svg>
